name rise43.5482peak65.4966fall89.1036.mot
datacolumns 19
datarows 27
range 22.74824400000000 22.79157600000000
endheader
time	ground_force1_vx	ground_force1_vy	ground_force1_vz	ground_force1_px	ground_force1_py	ground_force1_pz	ground_force2_vx	ground_force2_vy	ground_force2_vz	ground_force2_px	ground_force2_py	ground_force2_pz	ground_torque1_x	ground_torque1_y	ground_torque1_z	ground_torque2_x	ground_torque2_y	ground_torque2_z	
22.74824400000000	47.86185800000000	747.84143300000005	60.35397300000000	0.26368000000000	0.00000000000000	0.13334900000000	0.54406700000000	3.29908400000000	0.18246100000000	0.00000000000000	0.00000000000000	0.00000000000000	0.00000000000000	19.11192200000000	0.00000000000000	0.00000000000000	0.02233600000000	0.00000000000000	
22.74992600000000	47.35694900000000	752.23053000000004	60.43242800000000	0.26300000000000	0.00000000000000	0.13326400000000	0.00000000000000	0.00000000000000	0.00000000000000	0.00000000000000	0.00000000000000	0.00000000000000	0.00000000000000	19.14426800000000	0.00000000000000	0.00000000000000	0.00000000000000	0.00000000000000	
22.75157300000000	46.86452200000000	756.48396900000000	60.51437100000000	0.26234700000000	0.00000000000000	0.13318100000000	0.00000000000000	0.00000000000000	0.00000000000000	0.00000000000000	0.00000000000000	0.00000000000000	0.00000000000000	19.17671500000000	0.00000000000000	0.00000000000000	0.00000000000000	0.00000000000000	
22.75323800000000	46.38467100000000	760.59703900000000	60.59986800000000	0.26171900000000	0.00000000000000	0.13309900000000	0.00000000000000	0.00000000000000	0.00000000000000	0.00000000000000	0.00000000000000	0.00000000000000	0.00000000000000	19.20924100000000	0.00000000000000	0.00000000000000	0.00000000000000	0.00000000000000	
22.75490600000000	45.91737200000000	764.56519400000002	60.68888400000000	0.26111300000000	0.00000000000000	0.13301800000000	0.00000000000000	0.00000000000000	0.00000000000000	0.00000000000000	0.00000000000000	0.00000000000000	0.00000000000000	19.24179200000000	0.00000000000000	0.00000000000000	0.00000000000000	0.00000000000000	
22.75657900000000	45.46249400000000	768.38407299999994	60.78128300000000	0.26052800000000	0.00000000000000	0.13293900000000	0.00000000000000	0.00000000000000	0.00000000000000	0.00000000000000	0.00000000000000	0.00000000000000	0.00000000000000	19.27428100000000	0.00000000000000	0.00000000000000	0.00000000000000	0.00000000000000	
22.75823900000000	45.01979900000000	772.04952400000002	60.87683400000000	0.25996000000000	0.00000000000000	0.13286100000000	0.00000000000000	0.00000000000000	0.00000000000000	0.00000000000000	0.00000000000000	0.00000000000000	0.00000000000000	19.30659100000000	0.00000000000000	0.00000000000000	0.00000000000000	0.00000000000000	
22.75991500000000	44.58894800000000	775.55762400000003	60.97521500000000	0.25940800000000	0.00000000000000	0.13278400000000	0.00000000000000	0.00000000000000	0.00000000000000	0.00000000000000	0.00000000000000	0.00000000000000	0.00000000000000	19.33857900000000	0.00000000000000	0.00000000000000	0.00000000000000	0.00000000000000	
22.76157200000000	44.16951100000000	778.90469800000005	61.07601800000000	0.25886900000000	0.00000000000000	0.13270800000000	0.00000000000000	0.00000000000000	0.00000000000000	0.00000000000000	0.00000000000000	0.00000000000000	0.00000000000000	19.37007100000000	0.00000000000000	0.00000000000000	0.00000000000000	0.00000000000000	
22.76324500000000	43.76096900000000	782.08733700000005	61.17875300000000	0.25834000000000	0.00000000000000	0.13263400000000	0.00000000000000	0.00000000000000	0.00000000000000	0.00000000000000	0.00000000000000	0.00000000000000	0.00000000000000	19.40087200000000	0.00000000000000	0.00000000000000	0.00000000000000	0.00000000000000	
22.76490700000000	43.36272700000000	785.10241900000005	61.28285600000000	0.25781900000000	0.00000000000000	0.13256200000000	0.00000000000000	0.00000000000000	0.00000000000000	0.00000000000000	0.00000000000000	0.00000000000000	0.00000000000000	19.43076300000000	0.00000000000000	0.00000000000000	0.00000000000000	0.00000000000000	
22.76657500000000	42.97411400000000	787.94712100000004	61.38769600000000	0.25730300000000	0.00000000000000	0.13249100000000	0.00000000000000	0.00000000000000	0.00000000000000	0.00000000000000	0.00000000000000	0.00000000000000	0.00000000000000	19.45950400000000	0.00000000000000	0.00000000000000	0.00000000000000	0.00000000000000	
22.76824000000000	42.59439700000000	790.61893599999996	61.49257800000000	0.25678900000000	0.00000000000000	0.13242100000000	0.00000000000000	0.00000000000000	0.00000000000000	0.00000000000000	0.00000000000000	0.00000000000000	0.00000000000000	19.48683900000000	0.00000000000000	0.00000000000000	0.00000000000000	0.00000000000000	
22.76991200000000	42.22278600000000	793.11568599999998	61.59675100000000	0.25627600000000	0.00000000000000	0.13235300000000	0.00000000000000	0.00000000000000	0.00000000000000	0.00000000000000	0.00000000000000	0.00000000000000	0.00000000000000	19.51249400000000	0.00000000000000	0.00000000000000	0.00000000000000	0.00000000000000	
22.77158000000000	41.85844100000000	795.43553599999996	61.69941900000000	0.25576100000000	0.00000000000000	0.13228600000000	0.00000000000000	0.00000000000000	0.00000000000000	0.00000000000000	0.00000000000000	0.00000000000000	0.00000000000000	19.53618200000000	0.00000000000000	0.00000000000000	0.00000000000000	0.00000000000000	
22.77323900000000	41.50048400000000	797.57699900000000	61.79974300000000	0.25524000000000	0.00000000000000	0.13222100000000	0.00000000000000	0.00000000000000	0.00000000000000	0.00000000000000	0.00000000000000	0.00000000000000	0.00000000000000	19.55760600000000	0.00000000000000	0.00000000000000	0.00000000000000	0.00000000000000	
22.77490400000000	41.14800300000000	799.53895199999999	61.89685000000000	0.25471200000000	0.00000000000000	0.13215600000000	0.00000000000000	0.00000000000000	0.00000000000000	0.00000000000000	0.00000000000000	0.00000000000000	0.00000000000000	19.57646100000000	0.00000000000000	0.00000000000000	0.00000000000000	0.00000000000000	
22.77657900000000	40.80006400000000	801.32063600000004	61.98984200000000	0.25417500000000	0.00000000000000	0.13209400000000	0.00000000000000	0.00000000000000	0.00000000000000	0.00000000000000	0.00000000000000	0.00000000000000	0.00000000000000	19.59243600000000	0.00000000000000	0.00000000000000	0.00000000000000	0.00000000000000	
22.77824100000000	40.45571700000000	802.92166699999996	62.07780000000000	0.25362500000000	0.00000000000000	0.13203200000000	0.00000000000000	0.00000000000000	0.00000000000000	0.00000000000000	0.00000000000000	0.00000000000000	0.00000000000000	19.60521600000000	0.00000000000000	0.00000000000000	0.00000000000000	0.00000000000000	
22.77991600000000	40.11400400000000	804.34203600000001	62.15979800000000	0.25306000000000	0.00000000000000	0.13197200000000	0.00000000000000	0.00000000000000	0.00000000000000	0.00000000000000	0.00000000000000	0.00000000000000	0.00000000000000	19.61448700000000	0.00000000000000	0.00000000000000	0.00000000000000	0.00000000000000	
22.78157600000000	39.77396800000000	805.58211600000004	62.23490200000000	0.25247900000000	0.00000000000000	0.13191200000000	0.00000000000000	0.00000000000000	0.00000000000000	0.00000000000000	0.00000000000000	0.00000000000000	0.00000000000000	19.61993700000000	0.00000000000000	0.00000000000000	0.00000000000000	0.00000000000000	
22.78324400000000	39.43466000000000	806.64265699999999	62.30218200000000	0.25187900000000	0.00000000000000	0.13185400000000	0.00000000000000	0.00000000000000	0.00000000000000	0.00000000000000	0.00000000000000	0.00000000000000	0.00000000000000	19.62125800000000	0.00000000000000	0.00000000000000	0.00000000000000	0.00000000000000	
22.78490800000000	39.09515000000000	807.52478900000006	62.36071900000000	0.25125800000000	0.00000000000000	0.13179700000000	0.00000000000000	0.00000000000000	0.00000000000000	0.00000000000000	0.00000000000000	0.00000000000000	0.00000000000000	19.61815000000000	0.00000000000000	0.00000000000000	0.00000000000000	0.00000000000000	
22.78657300000000	38.75452700000000	808.23001599999998	62.40961100000000	0.25061500000000	0.00000000000000	0.13174100000000	0.00000000000000	0.00000000000000	0.00000000000000	0.00000000000000	0.00000000000000	0.00000000000000	0.00000000000000	19.61032400000000	0.00000000000000	0.00000000000000	0.00000000000000	0.00000000000000	
22.78824100000000	38.41191300000000	808.76021400000002	62.44797800000000	0.24994700000000	0.00000000000000	0.13168600000000	0.00000000000000	0.00000000000000	0.00000000000000	0.00000000000000	0.00000000000000	0.00000000000000	0.00000000000000	19.59750200000000	0.00000000000000	0.00000000000000	0.00000000000000	0.00000000000000	
22.78992400000000	38.06646600000000	809.11762699999997	62.47497200000000	0.24925300000000	0.00000000000000	0.13163200000000	0.00000000000000	0.00000000000000	0.00000000000000	0.00000000000000	0.00000000000000	0.00000000000000	0.00000000000000	19.57942000000000	0.00000000000000	0.00000000000000	0.00000000000000	0.00000000000000	
22.79157600000000	37.71738700000000	809.30485499999998	62.48977900000000	0.24853200000000	0.00000000000000	0.13157900000000	0.00000000000000	0.00000000000000	0.00000000000000	0.00000000000000	0.00000000000000	0.00000000000000	0.00000000000000	19.55583300000000	0.00000000000000	0.00000000000000	0.00000000000000	0.00000000000000	
